<svg width="125" height="125" viewBox="0 0 125 125" fill="none" xmlns="http://www.w3.org/2000/svg">
<path d="M99.3281 68.4479L69.8646 97.9167C67.9112 99.8695 65.2621 100.967 62.5 100.967C59.7379 100.967 57.0888 99.8695 55.1354 97.9167L25.6719 68.4531C23.2363 66.0388 21.3016 63.1672 19.9788 60.0031C18.656 56.839 17.9712 53.4449 17.9637 50.0154C17.9562 46.586 18.6261 43.1889 19.935 40.019C21.2439 36.8492 23.1661 33.9692 25.5911 31.5442C28.016 29.1192 30.8961 27.1971 34.0659 25.8882C37.2357 24.5792 40.6329 23.9093 44.0623 23.9168C47.4917 23.9243 50.8859 24.6091 54.05 25.9319C57.214 27.2547 60.0857 29.1894 62.5 31.625C67.404 26.8431 73.9945 24.1858 80.8439 24.2287C87.6933 24.2716 94.25 27.0113 99.0937 31.8543C103.937 36.6973 106.678 43.2536 106.722 50.103C106.766 56.9524 104.109 63.5432 99.3281 68.4479Z" stroke="black" stroke-width="7" stroke-linecap="round" stroke-linejoin="round"/>
</svg>
