<svg width="125" height="125" viewBox="0 0 125 125" fill="none" xmlns="http://www.w3.org/2000/svg">
<path d="M62.5 11.7188C34.5 11.7188 11.7188 34.5 11.7188 62.5C11.7188 90.5 34.5 113.281 62.5 113.281C90.5 113.281 113.281 90.5 113.281 62.5C113.281 34.5 90.5 11.7188 62.5 11.7188ZM58.5938 19.7266V60.6172L26.5625 86C21.9706 79.0231 19.5259 70.8525 19.5312 62.5C19.5312 40.1289 36.7266 21.7109 58.5938 19.7266ZM66.4062 19.7266C88.2734 21.7109 105.469 40.1289 105.469 62.5C105.469 71.1719 102.867 79.2461 98.4258 86.0078L66.4062 60.6172V19.7266ZM58.5938 70.5859V105.273C48.2467 104.325 38.5975 99.6464 31.4453 92.1094L58.5938 70.5859ZM66.4062 70.5859L93.5547 92.1094C86.4025 99.6464 76.7533 104.325 66.4062 105.273V70.5859Z" fill="black"/>
</svg>
