<svg width="125" height="125" viewBox="0 0 125 125" fill="none" xmlns="http://www.w3.org/2000/svg">
<path d="M58.5938 7.8125C52.168 7.8125 46.875 13.1055 46.875 19.5312V25.5117L46.3867 23.9258C44.5234 17.7773 37.8867 14.25 31.7383 16.1133C25.5898 17.9766 22.0625 24.6133 23.9258 30.7617L34.0586 63.7227C33.3242 64.0117 32.5352 64.3477 31.7383 64.8164C28.4727 66.7695 24.7813 70.7227 23.6797 77.0273C22.8594 81.6953 23.7578 85.8008 24.4141 88.0117V88.1367L27.4648 97.9023C29.1873 103.487 32.6539 108.373 37.3562 111.844C42.0586 115.315 47.7493 117.187 53.5938 117.188H74.2188C89.2773 117.188 101.563 104.902 101.563 89.8438V50.293C101.529 50.1706 101.488 50.0482 101.441 49.9258C101.09 45.625 98.4805 41.6094 94.2383 39.918C91.293 38.7422 88.1953 38.9102 85.4492 40.0391C84.1739 37.5541 82.053 35.6064 79.4688 34.5469C78.0045 33.9704 76.4391 33.6947 74.866 33.7364C73.2929 33.778 71.7443 34.136 70.3125 34.7891V19.5312C70.3125 13.1055 65.0195 7.8125 58.5938 7.8125ZM58.5938 15.625C60.8047 15.625 62.5 17.3203 62.5 19.5312V45.2891L58.4727 55.543C57.9109 56.9824 57.6208 58.5134 57.6172 60.0586L41.625 62.1328L31.4922 28.4414C31.3316 27.9526 31.2709 27.4364 31.3137 26.9236C31.3565 26.4109 31.5019 25.9119 31.7413 25.4565C31.9807 25.001 32.3092 24.5983 32.7072 24.2723C33.1053 23.9462 33.5649 23.7035 34.0586 23.5586C36.1641 22.918 38.3008 24.1406 38.9414 26.2461L46.9961 52.9766L51.3906 51.6367H54.6875V19.5312C54.6875 17.3203 56.3828 15.625 58.5938 15.625ZM74.9531 41.5039C75.4531 41.4883 76.0352 41.5508 76.5391 41.75C77.0228 41.9384 77.4641 42.2213 77.8372 42.5822C78.2103 42.9431 78.5077 43.3747 78.7121 43.8518C78.9165 44.329 79.0238 44.8421 79.0276 45.3612C79.0314 45.8803 78.9317 46.3949 78.7344 46.875L74.5859 57.25V57.3711L72.9961 61.4023C72.9219 61.6133 72.7383 61.707 72.6328 61.8906C70.6113 60.2932 68.1264 59.3941 65.5508 59.3281C65.5977 59.0352 65.5508 58.7617 65.6758 58.4688L71.5352 43.9453C72.1445 42.4023 73.4414 41.5352 74.9531 41.5039ZM89.7188 46.875C90.2422 46.875 90.7891 46.9219 91.3086 47.1211C92.0246 47.3965 92.6408 47.8817 93.0764 48.5132C93.5121 49.1447 93.7468 49.893 93.75 50.6602V50.7812C93.75 51.2539 93.6875 51.7734 93.5039 52.2461L89.1094 63.1094C88.9214 63.5934 88.6387 64.0351 88.278 64.4087C87.9173 64.7822 87.4857 65.08 87.0085 65.2848C86.5313 65.4896 86.0181 65.5972 85.4988 65.6012C84.9796 65.6053 84.4647 65.5058 83.9844 65.3086C81.9414 64.4844 81.0859 62.2227 81.9102 60.1797L86.0586 49.8047C86.1211 49.6484 86.1211 49.4688 86.1836 49.3164C86.5583 48.34 87.3019 47.5501 88.2539 47.1172C88.7218 46.932 89.224 46.8494 89.7266 46.875H89.7188ZM64.4531 67.0156C64.9343 66.8967 65.4345 66.8753 65.9241 66.9528C66.4137 67.0303 66.8827 67.2052 67.3037 67.467C67.7246 67.7288 68.0888 68.0722 68.3747 68.4771C68.6607 68.882 68.8627 69.34 68.9688 69.8242C69.2734 71.0898 69.1055 71.7305 68.7266 72.3867C68.3438 73.043 67.5352 73.8516 65.7969 74.4648L46.875 79.3477C46.3062 79.4991 45.779 79.7772 45.3327 80.161C44.8865 80.5449 44.5328 81.0246 44.298 81.5644C44.0632 82.1042 43.9535 82.69 43.977 83.2782C44.0005 83.8663 44.1565 84.4416 44.4336 84.9609L47.9727 91.4297C48.2201 91.8798 48.5542 92.2766 48.9557 92.597C49.3572 92.9175 49.8181 93.1554 50.3119 93.297C50.8056 93.4386 51.3226 93.4811 51.8329 93.4221C52.3432 93.3631 52.8367 93.2037 53.2852 92.9531C53.7343 92.7056 54.1301 92.3719 54.4499 91.971C54.7697 91.5702 55.0072 91.1101 55.1487 90.6172C55.2903 90.1244 55.3331 89.6084 55.2747 89.0989C55.2164 88.5894 55.058 88.0965 54.8086 87.6484L53.7109 85.6953L68.1172 81.9063C68.237 81.875 68.3581 81.8359 68.4805 81.7891C71.5039 80.7344 73.9297 78.9336 75.4414 76.418C76.6563 74.3578 77.1703 71.9591 76.9063 69.582C78.0469 70.8164 79.5117 71.8398 81.1758 72.5117C83.2921 73.368 85.614 73.5809 87.8507 73.1237C90.0874 72.6664 92.1395 71.5595 93.75 69.9414V89.8438C93.75 100.676 85.0508 109.375 74.2188 109.375H53.5898C44.9961 109.375 37.4453 103.789 34.9141 95.582L31.9844 85.8164C31.6602 84.7617 31.0195 81.0703 31.4922 78.3672C32.2266 74.1719 34.0586 72.5547 35.7656 71.5313C37.4766 70.5117 38.6953 70.4375 38.6953 70.4375H38.9414L64.0859 67.1367C64.2109 67.1055 64.3333 67.0625 64.4531 67.0156Z" fill="black"/>
</svg>
