<svg xmlns="http://www.w3.org/2000/svg" viewBox="0 0 24 24" fill="currentColor">
  <path d="M12 0C5.37 0 0 5.37 0 12c0 5.3 3.438 9.8 8.205 11.387.6.113.82-.26.82-.577 0-.285-.01-1.04-.015-2.04-3.338.727-4.042-1.61-4.042-1.61-.546-1.387-1.333-1.756-1.333-1.756-1.09-.745.083-.73.083-.73 1.205.085 1.84 1.238 1.84 1.238 1.07 1.835 2.807 1.305 3.492.998.107-.775.42-1.305.763-1.605-2.665-.303-5.466-1.332-5.466-5.93 0-1.31.468-2.382 1.235-3.22-.124-.303-.535-1.523.117-3.176 0 0 1.008-.322 3.3 1.23.957-.266 1.983-.399 3.003-.404 1.02.005 2.047.138 3.006.404 2.29-1.552 3.296-1.23 3.296-1.23.654 1.653.243 2.873.12 3.176.77.838 1.233 1.91 1.233 3.22 0 4.61-2.804 5.624-5.475 5.92.431.372.815 1.102.815 2.222 0 1.606-.015 2.9-.015 3.293 0 .32.216.694.825.576C20.565 21.796 24 17.298 24 12c0-6.63-5.37-12-12-12z"/>
</svg>